# xmcd
#
# Track frame offsets: 
#        150
#        14036
#        31357
#        43708
#        55951
#        70083
#        88667
#        107474
#        125923
#        136645
#        147789
#        157945
#        171189
#        184139
#        198714
#        217618
#        235733
#
# Disc length: 3417 seconds
#
# Revision: 0
# Processed by: cddbd v1.5.2PL0 Copyright (c) Steve Scherf et al.
# Submitted via: ExactAudioCopy v0.99pb3
#
DISCID=ea0d5711
DTITLE=Various Artist - Burn Burn Presents Watch This Space
DYEAR=2006
DGENRE=Hungry Kid
TTITLE0=Mugshot - A New Appreciation
TTITLE1=Volume - Blind
TTITLE2=Lost Sunday - Disco Maiden
TTITLE3=My Friend Eject - Division Demotion
TTITLE4=Soundbite - Fool To Cry
TTITLE5=The Electric Cinema - Heat Exchange
TTITLE6=The Heart Strings - Kids
TTITLE7=The Spicoli's - Last Trip Around The Sun
TTITLE8=Assembly Now - Leigh-On-Sea
TTITLE9=Dustin's Bar Mitzvah - Oh No
TTITLE10=The Waiting Game - Taste The Waste
TTITLE11=Plastic Passion - Not Art
TTITLE12=Neatpeople - Standing Next To Rose
TTITLE13=Crush Luther - Rudy
TTITLE14=Seeing Scarlet - Ugly Girl
TTITLE15=Greenwich Resident - Not Quite The Actress
TTITLE16=Get Cape. Wear Cape. Fly - Whitewash Is Brainwash (Original V
TTITLE16=ersion)
EXTD=
EXTT0=
EXTT1=
EXTT2=
EXTT3=
EXTT4=
EXTT5=
EXTT6=
EXTT7=
EXTT8=
EXTT9=
EXTT10=
EXTT11=
EXTT12=
EXTT13=
EXTT14=
EXTT15=
EXTT16=
PLAYORDER=
